<?xml version="1.0" standalone="no"?>
<!DOCTYPE svg PUBLIC "-//W3C//DTD SVG 20010904//EN"
 "http://www.w3.org/TR/2001/REC-SVG-20010904/DTD/svg10.dtd">
<svg version="1.0" xmlns="http://www.w3.org/2000/svg"
 width="500.000000pt" height="500.000000pt" viewBox="0 0 500.000000 500.000000"
 preserveAspectRatio="xMidYMid meet">

<g transform="translate(0.000000,500.000000) scale(0.100000,-0.100000)"
fill="#4B0082" stroke="none">
<path d="M2517 3461 c-48 -43 -105 -170 -119 -268 -9 -63 -9 -108 0 -194 l12
-113 -38 -30 c-20 -16 -76 -68 -123 -116 -65 -65 -96 -106 -124 -162 -107
-217 -29 -456 183 -560 54 -27 75 -31 142 -32 89 -1 82 6 94 -96 3 -25 8 -66
11 -91 4 -30 2 -49 -5 -54 -7 -5 -8 -11 -1 -19 16 -19 -8 -81 -46 -118 -29
-28 -41 -32 -96 -35 -62 -4 -106 9 -115 35 -2 7 5 12 18 12 29 0 76 26 84 45
9 24 7 80 -3 108 -5 13 -26 34 -46 46 -39 23 -101 30 -89 9 5 -8 2 -9 -9 -5
-10 3 -17 2 -17 -4 0 -6 -9 -22 -20 -36 -45 -57 -16 -173 55 -222 65 -44 186
-39 259 12 58 41 80 145 57 277 -5 30 -12 76 -16 102 l-6 46 37 12 c58 19 129
97 148 161 55 183 -38 347 -209 368 l-50 6 -13 98 -13 99 72 75 c90 95 124
166 139 288 17 136 -10 294 -61 359 -27 34 -50 33 -92 -3z m109 -166 c23 -35
13 -113 -25 -190 -30 -60 -136 -185 -157 -185 -18 0 -23 109 -8 183 15 75 53
157 89 193 33 33 79 32 101 -1z m-182 -652 c4 -37 9 -78 12 -89 4 -17 0 -23
-20 -28 -37 -9 -103 -72 -128 -120 -45 -88 -17 -222 55 -266 48 -30 52 -24 15
21 -28 35 -33 49 -33 94 0 39 6 61 21 82 25 33 83 75 98 70 11 -4 54 -276 55
-348 1 -43 -9 -49 -79 -49 -145 0 -276 117 -296 263 -7 52 15 140 53 207 27
47 221 243 233 235 4 -2 10 -35 14 -72z m123 -244 c31 -12 79 -54 96 -84 33
-62 25 -165 -19 -222 -31 -41 -82 -70 -89 -51 -2 7 -15 93 -28 191 -26 196
-27 192 40 166z"/>
<path d="M2705 2709 c-4 -6 -5 -13 -2 -16 7 -7 27 6 27 18 0 12 -17 12 -25 -2z"/>
<path d="M1760 2695 c-26 -32 20 -62 68 -44 26 10 29 44 6 53 -27 11 -61 7
-74 -9z"/>
<path d="M4173 2703 c-21 -8 -15 -43 9 -52 28 -10 68 -2 75 15 12 32 -41 55
-84 37z"/>
<path d="M395 2515 l0 -185 43 0 42 0 0 143 c1 163 -3 164 77 -18 l52 -120 39
-3 38 -3 53 123 c84 197 80 196 81 26 l0 -148 46 0 c43 0 46 2 40 23 -3 12 -6
95 -6 185 l0 163 -62 -3 -62 -3 -32 -75 c-17 -41 -46 -106 -63 -145 l-33 -70
-27 60 c-15 33 -43 99 -62 147 l-34 88 -65 0 -65 0 0 -185z"/>
<path d="M2840 2515 l0 -185 43 0 42 0 -2 147 -3 148 31 -59 c23 -43 27 -61
19 -66 -15 -9 -4 -30 15 -30 7 0 26 -32 41 -70 l28 -71 39 3 39 3 59 134 c32
74 63 139 70 145 8 8 10 -25 7 -136 l-4 -148 43 0 43 0 0 185 0 185 -63 0 -64
0 -57 -132 c-31 -73 -60 -139 -65 -147 -9 -14 -26 19 -96 187 l-38 92 -63 0
-64 0 0 -185z"/>
<path d="M2760 2682 c0 -14 11 -21 26 -15 8 3 11 9 8 14 -7 11 -34 12 -34 1z"/>
<path d="M2545 2669 c-4 -6 -5 -13 -2 -16 7 -7 27 6 27 18 0 12 -17 12 -25 -2z"/>
<path d="M2620 2665 c0 -9 6 -12 15 -9 8 4 15 10 15 15 0 5 -7 9 -15 9 -8 0
-15 -7 -15 -15z"/>
<path d="M1994 2641 c4 -6 0 -25 -8 -42 -11 -22 -12 -28 -2 -20 7 6 16 8 19 4
4 -3 7 8 7 25 0 17 -5 34 -12 38 -7 4 -8 3 -4 -5z"/>
<path d="M1075 2603 c-72 -16 -85 -24 -85 -54 0 -34 1 -34 42 -13 17 9 58 17
90 17 52 2 63 -2 79 -22 33 -41 25 -48 -67 -54 -105 -8 -148 -28 -152 -75 -8
-78 138 -104 210 -36 l26 26 7 -31 c6 -28 10 -31 47 -31 33 0 39 3 34 16 -4 9
-9 57 -13 106 -4 64 -11 96 -24 112 -28 35 -125 55 -194 39z m143 -175 c-3
-29 -8 -35 -43 -46 -55 -18 -118 -1 -113 31 4 30 43 47 106 47 l53 0 -3 -32z"/>
<path d="M1435 2603 c-11 -2 -29 -6 -40 -8 -20 -4 -21 -12 -20 -135 l0 -130
38 0 37 0 0 65 c0 104 31 155 94 155 46 0 66 -41 66 -136 l0 -84 40 0 40 0 0
95 c0 59 -5 108 -14 129 -34 82 -164 67 -212 -26 -21 -40 -25 -32 -15 30 4 29
8 51 7 51 -1 -1 -10 -3 -21 -6z"/>
<path d="M2680 2605 c0 -7 30 -13 34 -7 3 4 -4 9 -15 9 -10 1 -19 0 -19 -2z"/>
<path d="M3864 2600 c-63 -20 -87 -82 -47 -121 14 -15 42 -22 106 -29 48 -5
91 -12 97 -15 16 -10 12 -42 -6 -49 -29 -11 -121 -6 -164 9 -23 8 -43 15 -44
15 0 0 -2 -13 -3 -29 -2 -26 2 -30 42 -41 25 -7 81 -11 130 -9 81 4 88 6 111
33 16 18 24 38 22 54 -5 41 -44 61 -137 69 -65 6 -86 12 -95 26 -26 43 64 61
160 32 27 -8 50 -15 52 -15 1 0 2 13 2 29 0 21 -6 30 -22 35 -43 12 -173 16
-204 6z"/>
<path d="M4425 2603 c-81 -20 -115 -61 -115 -141 0 -57 21 -91 74 -116 40 -19
154 -21 205 -3 29 10 34 17 35 43 l1 32 -30 -16 c-19 -10 -56 -16 -98 -17 -63
0 -71 2 -93 28 -84 98 52 183 186 117 l35 -18 1 34 c0 33 -2 35 -50 49 -48 15
-110 18 -151 8z"/>
<path d="M1761 2465 l0 -135 39 0 40 0 0 135 0 135 -40 0 -39 0 0 -135z"/>
<path d="M2795 2590 c3 -5 10 -10 16 -10 5 0 9 5 9 10 0 6 -7 10 -16 10 -8 0
-12 -4 -9 -10z"/>
<path d="M3429 2593 c0 -5 0 -51 1 -103 2 -97 15 -142 45 -154 56 -21 144 10
167 59 11 25 31 35 24 13 -3 -7 -7 -28 -10 -45 -5 -33 -5 -33 37 -33 l42 0 0
135 0 136 -35 -3 -35 -3 -7 -77 c-4 -43 -12 -87 -18 -98 -22 -40 -107 -41
-127 0 -7 14 -13 60 -13 103 l0 77 -35 0 c-19 0 -35 -3 -36 -7z"/>
<path d="M4170 2465 l0 -135 38 0 37 0 0 135 0 135 -37 0 -38 0 0 -135z"/>
<path d="M1971 2504 c0 -11 3 -14 6 -6 3 7 2 16 -1 19 -3 4 -6 -2 -5 -13z"/>
<path d="M2950 2400 c0 -5 7 -10 16 -10 8 0 12 5 9 10 -3 6 -10 10 -16 10 -5
0 -9 -4 -9 -10z"/>
<path d="M2970 2340 c0 -5 5 -10 10 -10 6 0 10 5 10 10 0 6 -4 10 -10 10 -5 0
-10 -4 -10 -10z"/>
<path d="M1940 2321 c0 -6 4 -13 10 -16 6 -3 7 1 4 9 -7 18 -14 21 -14 7z"/>
<path d="M2970 2291 c0 -6 5 -13 10 -16 6 -3 10 1 10 9 0 9 -4 16 -10 16 -5 0
-10 -4 -10 -9z"/>
<path d="M2880 2236 c0 -2 8 -10 18 -17 15 -13 16 -12 3 4 -13 16 -21 21 -21
13z"/>
<path d="M2937 2190 c13 -27 29 -50 35 -50 7 0 5 7 -4 18 -9 9 -19 27 -22 39
-4 11 -13 26 -20 32 -7 6 -2 -11 11 -39z"/>
<path d="M2977 2213 c-10 -9 -9 -41 1 -47 5 -3 8 5 8 17 -1 16 5 22 21 21 12
0 20 3 17 8 -6 10 -38 11 -47 1z"/>
<path d="M3040 2136 c0 -9 5 -16 10 -16 6 0 10 4 10 9 0 6 -4 13 -10 16 -5 3
-10 -1 -10 -9z"/>
<path d="M2000 2076 c0 -2 7 -9 15 -16 13 -11 14 -10 9 4 -5 14 -24 23 -24 12z"/>
<path d="M2890 2045 c0 -8 5 -15 10 -15 6 0 10 7 10 15 0 8 -4 15 -10 15 -5 0
-10 -7 -10 -15z"/>
<path d="M2035 2010 c3 -5 8 -10 11 -10 2 0 4 5 4 10 0 6 -5 10 -11 10 -5 0
-7 -4 -4 -10z"/>
<path d="M2850 1984 c0 -8 5 -12 10 -9 6 3 10 10 10 16 0 5 -4 9 -10 9 -5 0
-10 -7 -10 -16z"/>
<path d="M2774 1948 l-19 -23 23 19 c21 18 27 26 19 26 -2 0 -12 -10 -23 -22z"/>
<path d="M2140 1916 c0 -2 7 -7 16 -10 8 -3 12 -2 9 4 -6 10 -25 14 -25 6z"/>
<path d="M2846 1911 c-4 -7 -5 -15 -2 -18 9 -9 19 4 14 18 -4 11 -6 11 -12 0z"/>
<path d="M2717 1863 c-4 -3 -7 -11 -7 -17 0 -6 5 -5 12 2 6 6 9 14 7 17 -3 3
-9 2 -12 -2z"/>
<path d="M2797 1863 c-4 -3 -7 -11 -7 -17 0 -6 5 -5 12 2 6 6 9 14 7 17 -3 3
-9 2 -12 -2z"/>
<path d="M2433 1833 c15 -2 37 -2 50 0 12 2 0 4 -28 4 -27 0 -38 -2 -22 -4z"/>
<path d="M2660 1821 c0 -7 -5 -9 -12 -5 -7 5 -8 3 -3 -5 5 -9 10 -10 18 -2 6
6 8 14 4 18 -4 3 -7 1 -7 -6z"/>
<path d="M2415 1770 c-3 -5 1 -10 9 -10 9 0 16 5 16 10 0 6 -4 10 -9 10 -6 0
-13 -4 -16 -10z"/>
<path d="M2480 1770 c-13 -8 -12 -10 3 -10 9 0 17 5 17 10 0 12 -1 12 -20 0z"/>
</g>
</svg>
